<?xml version="1.0" encoding="iso-8859-1"?>
<!-- Uploaded to: SVG Repo, www.svgrepo.com, Generator: SVG Repo Mixer Tools -->
<svg fill="#000000" height="800px" width="800px" version="1.1" id="Capa_1" xmlns="http://www.w3.org/2000/svg" xmlns:xlink="http://www.w3.org/1999/xlink" 
	 viewBox="0 0 612.001 612.001" xml:space="preserve">
<g>
	<g>
		<path d="M606.932,242.686l-202.7-202.7c-3.28-3.276-7.698-5.07-12.244-5.07c-1.112,0-2.232,0.107-3.342,0.325L157.95,80.559
			c-3.625,0.49-7.127,2.132-9.909,4.914c-6.762,6.764-6.766,17.728,0,24.494c0.008,0.008,0.019,0.015,0.023,0.026l295.78,295.777
			c3.383,3.383,7.814,5.074,12.247,5.074c4.431,0,8.866-1.691,12.245-5.074l138.595-138.591
			C613.69,260.415,613.69,249.449,606.932,242.686z"/>
		<path d="M16.859,478.79c-22.479,22.483-22.479,58.941,0.006,81.429c22.486,22.483,58.948,22.49,81.433,0L320.478,338.04
			l-81.433-81.431L16.859,478.79z"/>
	</g>
</g>
</svg>